# xmcd
#
# Track frame offsets:
#	150
#	18137
#	37347
#	52917
#	69982
#	88517
#	107147
#	120212
#	136022
#	153902
#
# Disc length: 2328 seconds
#
# Revision: 1
# Processed by: cddbd v1.4PL0 Copyright (c) Steve Scherf et al.
# Submitted via: audiograbber 1.82.01
#
DISCID=7009160a
DTITLE=Moustafa Amar - Habib Hayati
DYEAR=1900
DGENRE=
TTITLE0=Habib Hayati
TTITLE1=W Ana Mali
TTITLE2=Omri
TTITLE3=yalli Waheshni
TTITLE4=La Bod Betfarek
TTITLE5=Ya Habibi
TTITLE6=Jat Tesalehni
TTITLE7=Khabini
TTITLE8=Houwa 
TTITLE9=Mechwar
EXTD=
EXTT0=
EXTT1=
EXTT2=
EXTT3=
EXTT4=
EXTT5=
EXTT6=
EXTT7=
EXTT8=
EXTT9=
PLAYORDER=
